<svg width="24" height="24" viewBox="0 0 24 24" fill="none" xmlns="http://www.w3.org/2000/svg">
<rect width="24" height="24" fill="#1E1E1E"/>
<g clip-path="url(#clip0_0_1)">
<rect width="800" height="480" transform="translate(-169 -161)" fill="#EEF6F7"/>
<rect x="-217" y="-161" width="882" height="480" rx="20" fill="#085D66"/>
<g filter="url(#filter0_d_0_1)">
<rect x="-66" y="-152" width="731" height="567" rx="15" fill="white"/>
</g>
<circle cx="12" cy="12" r="11.25" fill="#EDFCFE" stroke="#085D66" stroke-width="1.5"/>
<g clip-path="url(#clip1_0_1)">
<path fill-rule="evenodd" clip-rule="evenodd" d="M6 11.3027C8.35383 11.2708 8.83594 11.1777 10.4951 13.262C11.7675 11.0984 13.1815 9.22567 14.712 7.59191C16.2188 5.98291 16.2305 5.97882 18 6.00599C14.9892 9.43794 12.5323 13.1098 10.5673 17.0002C9.51562 14.6895 8.0468 12.7442 6 11.3027Z" fill="#085D66"/>
</g>
</g>
<defs>
<filter id="filter0_d_0_1" x="-69" y="-154" width="737" height="573" filterUnits="userSpaceOnUse" color-interpolation-filters="sRGB">
<feFlood flood-opacity="0" result="BackgroundImageFix"/>
<feColorMatrix in="SourceAlpha" type="matrix" values="0 0 0 0 0 0 0 0 0 0 0 0 0 0 0 0 0 0 127 0" result="hardAlpha"/>
<feOffset dy="1"/>
<feGaussianBlur stdDeviation="1.5"/>
<feComposite in2="hardAlpha" operator="out"/>
<feColorMatrix type="matrix" values="0 0 0 0 0 0 0 0 0 0 0 0 0 0 0 0 0 0 0.1 0"/>
<feBlend mode="normal" in2="BackgroundImageFix" result="effect1_dropShadow_0_1"/>
<feBlend mode="normal" in="SourceGraphic" in2="effect1_dropShadow_0_1" result="shape"/>
</filter>
<clipPath id="clip0_0_1">
<rect width="800" height="480" fill="white" transform="translate(-169 -161)"/>
</clipPath>
<clipPath id="clip1_0_1">
<rect width="12" height="11" fill="white" transform="translate(6 9)"/>
</clipPath>
</defs>
</svg>
