<svg width="297" height="297" viewBox="0 0 297 297" fill="none" xmlns="http://www.w3.org/2000/svg">
<path opacity="0.7" d="M40.3504 99.2514C40.3504 99.2514 23.7897 142.019 47.0626 185.084C70.3356 228.149 118.271 250.9 156.638 270.353C195.004 289.807 234.844 280.332 253.775 248.47C272.705 216.608 246.742 193.864 246.706 148.429C246.67 102.994 253.507 90.9651 228.886 52.5809C204.265 14.1966 143.908 5.69644 98.2654 34.1669C52.6225 62.6373 40.3504 99.2514 40.3504 99.2514Z" fill="white"/>
<path d="M11.7493 166.445C8.6795 152.245 10.0076 137.447 15.5569 124.021C23.166 105.239 39.4772 91.8978 57.7606 84.1105C84.3361 72.8245 110.425 72.581 132.011 50.4069C138.669 43.5641 144.265 35.7292 151.066 29.0229C171.143 9.2665 200.523 11.6603 222.459 27.33C268.197 60 284.686 124.746 282.138 178.242C280.998 202.257 269.533 224.609 251.387 240.362C210.347 276.002 140.665 270.003 93.5253 251.399C58.3961 237.541 20.0059 205.186 11.7493 166.445Z" fill="#3F8489"/>
<path opacity="0.7" d="M11.7493 166.445C8.6795 152.245 10.0076 137.447 15.5569 124.021C23.166 105.239 39.4772 91.8979 57.7606 84.1105C84.3361 72.8245 110.425 72.581 132.011 50.4069C138.669 43.5641 144.265 35.7292 151.066 29.0229C171.143 9.2665 200.523 11.6603 222.459 27.33C268.197 60 284.686 124.746 282.138 178.242C280.998 202.257 269.533 224.609 251.387 240.362C210.347 276.002 140.665 270.003 93.5253 251.399C58.3962 237.541 20.0059 205.186 11.7493 166.445Z" fill="white"/>
<path d="M183.534 89.0823H113.941C112.55 89.0823 111.423 90.2099 111.423 91.6008V169.023C111.423 170.414 112.55 171.541 113.941 171.541H183.534C184.925 171.541 186.053 170.414 186.053 169.023V91.6008C186.053 90.2099 184.925 89.0823 183.534 89.0823Z" fill="#3F8489" stroke="#263238" stroke-width="1.10721" stroke-linecap="round" stroke-linejoin="round"/>
<g opacity="0.5">
<path d="M184.55 116.573H112.925" stroke="white" stroke-width="1.10721" stroke-linecap="round" stroke-linejoin="round"/>
<path d="M184.55 125.732H112.925" stroke="white" stroke-width="1.10721" stroke-linecap="round" stroke-linejoin="round"/>
<path d="M184.55 134.892H112.925" stroke="white" stroke-width="1.10721" stroke-linecap="round" stroke-linejoin="round"/>
<path d="M184.55 144.051H112.925" stroke="white" stroke-width="1.10721" stroke-linecap="round" stroke-linejoin="round"/>
<path d="M184.55 153.211H112.925" stroke="white" stroke-width="1.10721" stroke-linecap="round" stroke-linejoin="round"/>
<path d="M184.55 162.376H112.925" stroke="white" stroke-width="1.10721" stroke-linecap="round" stroke-linejoin="round"/>
<path d="M184.55 107.407H112.925" stroke="white" stroke-width="1.10721" stroke-linecap="round" stroke-linejoin="round"/>
<path d="M184.55 98.2478H112.925" stroke="white" stroke-width="1.10721" stroke-linecap="round" stroke-linejoin="round"/>
<path d="M167.437 170.068V90.5496" stroke="white" stroke-width="1.10721" stroke-linecap="round" stroke-linejoin="round"/>
<path d="M158.087 170.068V90.5496" stroke="white" stroke-width="1.10721" stroke-linecap="round" stroke-linejoin="round"/>
<path d="M148.738 170.068V90.5496" stroke="white" stroke-width="1.10721" stroke-linecap="round" stroke-linejoin="round"/>
<path d="M139.388 170.068V90.5496" stroke="white" stroke-width="1.10721" stroke-linecap="round" stroke-linejoin="round"/>
<path d="M130.038 170.068V90.5496" stroke="white" stroke-width="1.10721" stroke-linecap="round" stroke-linejoin="round"/>
<path d="M120.695 170.068V90.5496" stroke="white" stroke-width="1.10721" stroke-linecap="round" stroke-linejoin="round"/>
<path d="M176.786 170.068V90.5496" stroke="white" stroke-width="1.10721" stroke-linecap="round" stroke-linejoin="round"/>
</g>
<path d="M146.124 155.432C146.924 151.298 148.017 147.227 149.397 143.249C149.676 142.447 149.991 141.639 150.335 140.778C151.149 138.699 152.818 134.452 152.189 133.187C152.126 133.052 152.029 132.937 151.906 132.852C151.784 132.767 151.642 132.717 151.494 132.706C151.462 132.704 151.43 132.709 151.401 132.72C151.371 132.732 151.344 132.749 151.321 132.771C149.468 134.286 148.274 138.485 147.407 141.55L147.116 142.584C145.966 146.705 145.151 150.912 144.681 155.165" stroke="#263238" stroke-width="1.10721" stroke-linecap="round" stroke-linejoin="round"/>
<path d="M148.874 155.628C149.642 151.737 150.68 147.905 151.981 144.158C152.242 143.392 152.575 142.59 152.89 141.746C154.191 138.438 155.806 134.339 154.642 131.993C154.353 131.408 153.908 130.913 153.357 130.564C152.806 130.214 152.17 130.022 151.518 130.009C150.828 130.002 150.159 130.24 149.629 130.68C147.116 132.729 145.845 137.214 144.823 140.814L144.532 141.841C143.382 145.927 142.562 150.098 142.079 154.315" stroke="#263238" stroke-width="1.10721" stroke-linecap="round" stroke-linejoin="round"/>
<path d="M151.69 155.361C152.414 151.862 153.364 148.413 154.535 145.037C155.949 141.004 159.133 134.939 157.065 130.781C155.373 127.378 150.941 126.112 147.918 128.583C144.461 131.399 143.089 137.048 141.924 141.093C140.826 144.988 140.018 148.959 139.507 152.973" stroke="#263238" stroke-width="1.10721" stroke-linecap="round" stroke-linejoin="round"/>
<path d="M154.648 154.541C155.294 151.626 156.111 148.752 157.095 145.934C157.327 145.263 157.624 144.514 157.939 143.712C159.626 139.418 161.728 134.066 159.489 129.563C158.75 128.077 157.614 126.825 156.207 125.944C154.8 125.064 153.177 124.589 151.518 124.574C149.581 124.568 147.703 125.238 146.207 126.469C142.37 129.599 140.861 134.998 139.608 139.329L139.323 140.333C138.322 143.859 137.562 147.449 137.048 151.078" stroke="#263238" stroke-width="1.10721" stroke-linecap="round" stroke-linejoin="round"/>
<path d="M157.808 152.979C158.36 150.805 158.966 148.791 159.649 146.831C159.875 146.195 160.154 145.477 160.451 144.722C162.233 140.16 164.686 133.935 161.913 128.363C160.95 126.425 159.469 124.792 157.634 123.645C155.799 122.498 153.682 121.882 151.518 121.865C148.956 121.856 146.473 122.743 144.496 124.372C139.994 128.043 138.337 133.876 137 138.592L136.715 139.59C135.877 142.534 135.205 145.522 134.701 148.542" stroke="#263238" stroke-width="1.10721" stroke-linecap="round" stroke-linejoin="round"/>
<path d="M161.069 150.336C161.663 145.988 165.168 140.832 165.512 134.803C165.827 129.278 164.009 125.738 162.72 123.962C162.414 123.524 162.219 123.019 162.153 122.489C162.087 121.958 162.151 121.42 162.34 120.921C163.202 118.389 163.173 115.64 162.257 113.127" stroke="#263238" stroke-width="1.10721" stroke-linecap="round" stroke-linejoin="round"/>
<path d="M152.836 105.007C157.41 107.87 160.38 112.379 160.612 118.206C160.689 120.297 158.99 121.016 156.863 120.368C152.414 119.014 141.812 115.545 135.349 133.715C134.111 137.486 133.196 141.355 132.616 145.281" stroke="#263238" stroke-width="1.10721" stroke-linecap="round" stroke-linejoin="round"/>
<path d="M143.748 105.304C146.602 105.266 149.423 105.926 151.963 107.229C156.305 109.563 159.038 115.052 157.642 116.448C156.091 117.998 153.21 114.256 144.401 117.867C140.166 119.602 137.161 123.136 135.117 127.152C134.196 128.986 133.417 130.888 132.789 132.842C131.97 135.356 131.295 137.914 130.769 140.505" stroke="#263238" stroke-width="1.10721" stroke-linecap="round" stroke-linejoin="round"/>
<path d="M138.741 108.655C140.292 108.246 141.888 108.032 143.493 108.019C151.268 107.841 154.185 111.987 153.329 113.038C152.61 113.923 151.013 113.424 148.821 113.692C142.495 114.47 137.493 118.069 134.125 123.392C132.464 126.087 131.139 128.975 130.181 131.993C130.003 132.533 129.831 133.08 129.664 133.626" stroke="#263238" stroke-width="1.10721" stroke-linecap="round" stroke-linejoin="round"/>
<path d="M135.076 113.127C137.667 111.034 140.93 109.954 144.259 110.086C145.245 110.086 147.68 110.407 148.007 111.339C148.441 112.563 144.485 110.9 138.752 114.719C131.405 119.62 130.514 124.265 130.514 124.265" stroke="#263238" stroke-width="1.10721" stroke-linecap="round" stroke-linejoin="round"/>
<path d="M164.188 147.045C164.188 147.045 168.173 138.438 167.752 131.785C167.49 127.502 165.376 124.817 165.043 122.911C164.71 121.004 165.637 120.535 165.387 118.788" stroke="#263238" stroke-width="1.10721" stroke-linecap="round" stroke-linejoin="round"/>
<path d="M116.448 106.528V94.3748H128.601" stroke="#263238" stroke-width="1.10721" stroke-linecap="round" stroke-linejoin="round"/>
<path d="M128.601 166.249H116.448V154.096" stroke="#263238" stroke-width="1.10721" stroke-linecap="round" stroke-linejoin="round"/>
<path d="M181.033 106.528V94.3748H168.88" stroke="#263238" stroke-width="1.10721" stroke-linecap="round" stroke-linejoin="round"/>
<path d="M168.88 166.249H181.033V154.096" stroke="#263238" stroke-width="1.10721" stroke-linecap="round" stroke-linejoin="round"/>
<path d="M232.658 277.992C229.486 273.24 226.16 268.227 223.427 264.074C219.934 258.782 217.416 254.915 217.416 254.915C216.079 248.66 214.185 246.207 212.278 241.069C210.371 235.931 211.945 231.351 212.735 224.989C213.525 218.628 212.278 212.699 211.613 208.678C210.947 204.657 211.725 200.861 211.613 199.97C211.5 199.079 207.704 194.386 206.267 190.923C205.615 189.379 204.705 187.957 203.576 186.718C202.328 185.29 200.766 184.169 199.014 183.445C198.284 183.158 197.522 182.958 196.745 182.851C194.963 182.596 193.525 182.881 192.088 182.881C190.074 182.881 185.833 179.424 183.041 178.871C182.523 178.768 181.999 178.695 181.473 178.651C179.162 178.432 176.721 178.651 174.018 178.865C171.316 179.079 168.173 176.519 165.643 175.717H165.601C165.041 175.522 164.444 175.457 163.855 175.527C161.176 175.972 156.133 176.418 156.133 176.418C156.133 176.418 155.687 172.961 155.462 168.268C155.42 167.454 155.361 166.67 155.289 165.892C155.028 162.994 154.612 160.404 154.547 158.034C154.547 157.44 154.547 156.804 154.547 156.21C154.767 152.872 154.666 150.27 154.547 145.138C154.547 144.966 154.547 144.781 154.547 144.597C154.547 142.999 154.547 141.473 154.452 140.095C154.268 136.751 153.525 134.28 150.199 133.769C147.294 133.323 145.286 134.773 144.057 139.578C142.827 144.383 141.936 144.045 141.604 151.078C141.271 158.111 139.697 162.59 139.923 166.16C140.148 169.729 139.364 176.656 139.364 176.656C138.028 175.984 136.798 176.543 136.567 177.101C136.335 177.659 135.349 183.136 134.559 187.045C133.87 190.519 130.704 193.733 129.54 196.127V196.18C129.415 196.439 129.312 196.707 129.231 196.982C128.559 199.441 128.898 204.704 128.898 211.393C128.898 218.081 127.223 225.019 128.898 229.48C129.255 230.389 129.754 231.235 130.377 231.987C132.949 235.165 137.671 237.927 141.966 242.993C147.312 249.361 151.125 254.054 154.695 256.18C157.256 257.689 158.378 258.925 158.853 260.552C159.04 261.258 159.138 261.984 159.145 262.714C159.192 264.14 159.964 265.227 161.271 267.033C163.31 269.795 165.099 272.733 166.617 275.812C168.049 278.681 170.24 284.128 172.557 290.163L232.658 277.992Z" fill="white"/>
<path opacity="0.4" d="M154.529 156.18C154.493 156.774 154.488 157.368 154.529 158.004C150.258 157.196 142.014 159.305 141.889 161.823C141.746 164.894 141.372 172.153 142.934 173.846C144.496 175.539 147.847 176.62 147.847 176.62C147.6 176.639 147.354 176.671 147.11 176.715H147.027C145.958 176.94 144.984 177.487 144.235 178.283C140.968 181.633 140.831 189.058 141.901 192.634C146.373 207.484 139.133 219.234 136.555 217.808C133.977 216.382 133.769 203.617 134.547 200.629C135.017 198.887 135.247 197.088 135.23 195.283C134.09 194.903 131.696 195.456 129.498 196.139V196.085C130.686 193.709 133.828 190.478 134.517 187.003C135.307 183.095 136.299 177.618 136.525 177.06C136.751 176.501 137.986 175.943 139.323 176.614C139.323 176.614 140.107 169.694 139.881 166.118C139.655 162.542 141.223 158.075 141.562 151.036C141.901 143.997 142.786 144.342 144.015 139.537C145.245 134.731 147.253 133.282 150.157 133.727C153.484 134.238 154.226 136.697 154.41 140.053C154.036 139.699 153.64 139.369 153.222 139.067C152.17 138.25 150.849 137.86 149.522 137.974C147.983 138.188 146.635 139.756 145.779 141.372C144.55 143.748 144.348 146.296 146.076 145.423C148.037 144.443 152.082 144.77 154.547 145.096C154.648 150.223 154.749 152.842 154.529 156.18Z" fill="#3F8489"/>
<path opacity="0.4" d="M159.091 262.696C159.084 261.966 158.987 261.24 158.8 260.534C158.331 258.907 157.208 257.671 154.642 256.162C151.078 254.036 147.27 249.343 141.913 242.976C137.618 237.885 132.896 235.147 130.324 231.969C133.561 233.721 137.957 232.818 139.341 235.592C141.354 239.596 150.811 245.69 150.811 245.69C160.041 254.826 159.091 262.696 159.091 262.696Z" fill="#3F8489"/>
<path opacity="0.4" d="M165.548 175.693C164.461 175.474 161.515 182.738 161.235 185.316C160.493 191.999 163.92 212.599 159.513 212.135C157.689 211.945 155.551 202.322 155.426 197.838C155.028 184.217 155.575 178.556 155.575 178.556C155.575 178.556 154.6 171.013 155.254 165.875C155.325 166.647 155.384 167.431 155.426 168.251C155.652 172.943 156.097 176.4 156.097 176.4C156.097 176.4 161.122 175.955 163.819 175.509C164.402 175.44 164.993 175.503 165.548 175.693Z" fill="#3F8489"/>
<path opacity="0.4" d="M181.42 178.645C179.043 178.859 176.667 181.182 174.713 181.615C172.337 182.12 167.971 176.768 165.589 175.723C168.12 176.525 171.292 179.043 173.965 178.871C176.638 178.699 179.109 178.426 181.42 178.645Z" fill="#3F8489"/>
<path opacity="0.4" d="M196.715 182.845C195.538 184.32 194.59 185.964 193.905 187.722C191.993 193.905 193.798 217.303 190.716 213.472C186.7 208.494 190.894 191.226 187.965 184.633C187.039 182.524 183.73 179.15 183.011 178.865C185.803 179.418 190.044 182.875 192.058 182.875C193.496 182.875 194.939 182.59 196.715 182.845Z" fill="#3F8489"/>
<path opacity="0.4" d="M223.415 264.069C220.285 260.54 217.006 257.178 214.862 255.919C209.64 252.842 208.144 249.658 207.692 244.354C207.241 239.049 208.589 239.162 210.151 233.917C211.713 228.672 208.809 222.186 209.035 223.588C209.26 224.989 206.795 234.695 204.983 235.177C203.172 235.658 202.56 229.112 202.334 223.778C202.109 218.444 205.013 193.602 204.199 188.732C204.089 188.025 203.868 187.339 203.546 186.7C204.676 187.939 205.585 189.361 206.237 190.906C207.692 194.369 211.488 199.061 211.583 199.952C211.678 200.843 210.912 204.645 211.583 208.66C212.254 212.676 213.484 218.598 212.705 224.972C211.927 231.345 210.329 235.913 212.248 241.051C214.167 246.189 216.05 248.643 217.386 254.897C217.404 254.909 219.923 258.776 223.415 264.069Z" fill="#3F8489"/>
<path opacity="0.4" d="M176.27 191.862C177.458 193.109 178.206 209.456 178.877 213.478C179.548 217.499 177.463 227.14 176.27 224.205C175.076 221.271 171.434 186.777 176.27 191.862Z" fill="#3F8489"/>
<path d="M171.666 287.852C169.694 282.756 167.87 278.295 166.623 275.794C165.105 272.715 163.316 269.777 161.277 267.015C159.97 265.233 159.198 264.122 159.15 262.696C159.144 261.966 159.046 261.24 158.859 260.534C158.39 258.907 157.267 257.671 154.701 256.162C151.137 254.036 147.33 249.343 141.972 242.976C137.677 237.885 132.955 235.147 130.383 231.969C129.76 231.217 129.261 230.371 128.904 229.462C127.229 225.001 128.904 218.069 128.904 211.375C128.904 204.68 128.565 199.424 129.237 196.964C129.317 196.689 129.421 196.421 129.545 196.162V196.109C130.733 193.733 133.876 190.502 134.565 187.027C135.355 183.118 136.347 177.642 136.572 177.083C136.798 176.525 138.034 175.966 139.37 176.638C139.37 176.638 140.154 169.718 139.929 166.142C139.703 162.566 141.271 158.099 141.61 151.06C141.948 144.021 142.833 144.366 144.063 139.56C145.292 134.755 147.3 133.305 150.205 133.751C153.531 134.262 154.274 136.721 154.458 140.077C154.535 141.455 154.523 142.982 154.553 144.58C154.553 144.764 154.553 144.948 154.553 145.12C154.66 150.234 154.761 152.842 154.553 156.192C154.517 156.786 154.511 157.38 154.553 158.016C154.618 160.392 155.034 162.976 155.295 165.874C155.367 166.647 155.426 167.431 155.468 168.25C155.693 172.943 156.139 176.4 156.139 176.4C156.139 176.4 161.164 175.955 163.861 175.509C164.45 175.439 165.047 175.504 165.607 175.699H165.649C168.179 176.501 171.351 179.02 174.024 178.847C176.697 178.675 179.168 178.414 181.479 178.634C182.005 178.677 182.529 178.751 183.047 178.853C185.839 179.406 190.08 182.863 192.094 182.863C193.531 182.863 194.975 182.578 196.751 182.833C197.528 182.941 198.29 183.14 199.02 183.427C200.772 184.152 202.334 185.272 203.582 186.7C204.711 187.939 205.621 189.361 206.272 190.906C207.728 194.369 211.523 199.061 211.618 199.952C211.713 200.843 210.947 204.645 211.618 208.66C212.29 212.676 213.519 218.598 212.741 224.971C211.963 231.345 210.365 235.913 212.284 241.051C214.202 246.189 216.085 248.642 217.422 254.897C217.422 254.897 219.94 258.764 223.433 264.057C225.857 267.734 228.743 272.105 231.583 276.352" stroke="#263238" stroke-width="1.10721" stroke-linecap="round" stroke-linejoin="round"/>
<path d="M139.341 176.62C139.341 181.538 138.895 187.639 138.153 190.175C137.41 192.711 137.909 201.194 136.543 204.764" stroke="#263238" stroke-width="1.10721" stroke-linecap="round" stroke-linejoin="round"/>
<path d="M141.877 180.493C141.877 180.493 145.298 176.62 147.817 176.62C150.335 176.62 152.884 178.259 155.539 178.556C158.194 178.853 161.01 176.875 163.582 176.4" stroke="#263238" stroke-width="1.10721" stroke-linecap="round" stroke-linejoin="round"/>
<path d="M143.807 162.572C143.807 162.572 148.429 160.885 150.811 162.572" stroke="#263238" stroke-width="1.10721" stroke-linecap="round" stroke-linejoin="round"/>
<path d="M147.312 160.38C147.312 160.38 148.726 159.994 150.811 161.004" stroke="#263238" stroke-width="1.10721" stroke-linecap="round" stroke-linejoin="round"/>
<path d="M146.076 148.5C147.641 148.152 149.264 148.152 150.828 148.5" stroke="#263238" stroke-width="1.10721" stroke-linecap="round" stroke-linejoin="round"/>
<path d="M129.492 196.085C129.492 196.085 132.462 194.642 133.65 194.493" stroke="#263238" stroke-width="1.10721" stroke-linecap="round" stroke-linejoin="round"/>
<path d="M137.339 200.659C137.339 200.659 135.557 203.427 135.224 204.764" stroke="#263238" stroke-width="1.10721" stroke-linecap="round" stroke-linejoin="round"/>
<path d="M146.076 136.418C146.076 136.418 145.364 142.103 146.076 142.607C146.789 143.112 152.296 143.594 152.747 142.607C153.199 141.621 153.276 137.457 153.276 137.457C153.276 137.457 149.979 131.797 146.076 136.418Z" stroke="#263238" stroke-width="1.10721" stroke-linecap="round" stroke-linejoin="round"/>
<path d="M134.541 187.009C134.541 187.009 139.109 184.704 139.216 181.408C139.323 178.111 137.98 178.146 136.281 178.129" stroke="#263238" stroke-width="1.10721" stroke-linecap="round" stroke-linejoin="round"/>
<path d="M205.756 194.493C205.904 199.703 204.419 214.891 204.265 217.125C204.11 219.358 204.265 225.067 204.265 225.067" stroke="#263238" stroke-width="1.10721" stroke-linecap="round" stroke-linejoin="round"/>
<path d="M173.145 182.566C178.057 189.694 173.145 187.009 176.269 221.146" stroke="#263238" stroke-width="1.10721" stroke-linecap="round" stroke-linejoin="round"/>
<path d="M217.404 254.909C217.404 254.909 213.05 251.523 212.302 249.563" stroke="#263238" stroke-width="1.10721" stroke-linecap="round" stroke-linejoin="round"/>
<path d="M156.614 253.305C157.921 255.474 158.746 260.226 158.794 260.517" stroke="#263238" stroke-width="1.10721" stroke-linecap="round" stroke-linejoin="round"/>
</svg>
