<svg width="20" height="25" viewBox="0 0 20 25" fill="none" xmlns="http://www.w3.org/2000/svg">
<path d="M5 21.25H15V18.75H5V21.25ZM5 17.5H15V15H5V17.5ZM10 12.875C11.375 11.625 12.5521 10.5154 13.5313 9.54625C14.5104 8.57709 15 7.56167 15 6.5C15 5.75 14.7292 5.10417 14.1875 4.5625C13.6458 4.02084 13 3.75 12.25 3.75C11.8125 3.75 11.3904 3.83875 10.9838 4.01625C10.5771 4.19375 10.2492 4.43834 10 4.75C9.75 4.4375 9.42167 4.19292 9.015 4.01625C8.60834 3.83959 8.18667 3.75084 7.75 3.75C7 3.75 6.35417 4.02084 5.8125 4.5625C5.27084 5.10417 5 5.75 5 6.5C5 7.5625 5.47375 8.5625 6.42125 9.5C7.36875 10.4375 8.56167 11.5625 10 12.875ZM17.5 25H2.5C1.8125 25 1.22375 24.755 0.733752 24.265C0.243752 23.775 -0.000831211 23.1867 2.12224e-06 22.5V2.5C2.12224e-06 1.8125 0.245002 1.22375 0.735002 0.733752C1.225 0.243752 1.81334 -0.000831211 2.5 2.12224e-06H17.5C18.1875 2.12224e-06 18.7763 0.245002 19.2663 0.735002C19.7563 1.225 20.0008 1.81334 20 2.5V22.5C20 23.1875 19.755 23.7763 19.265 24.2663C18.775 24.7563 18.1867 25.0008 17.5 25Z" fill="white"/>
</svg>
