<svg width="24" height="23" viewBox="0 0 24 23" fill="none" xmlns="http://www.w3.org/2000/svg">
<path d="M12 22.5C9.125 22.5 6.61958 21.5467 4.48375 19.64C2.34792 17.7333 1.12417 15.3533 0.8125 12.5H3.375C3.66667 14.6667 4.63042 16.4583 6.26625 17.875C7.90208 19.2917 9.81333 20 12 20C14.4375 20 16.5054 19.1508 18.2038 17.4525C19.9021 15.7542 20.7508 13.6867 20.75 11.25C20.75 8.8125 19.9008 6.74458 18.2025 5.04625C16.5042 3.34792 14.4367 2.49917 12 2.5C10.5625 2.5 9.21875 2.83333 7.96875 3.5C6.71875 4.16667 5.66667 5.08333 4.8125 6.25H8.25V8.75H0.75V1.25H3.25V4.1875C4.3125 2.85417 5.60958 1.82292 7.14125 1.09375C8.67292 0.364583 10.2925 0 12 0C13.5625 0 15.0263 0.297083 16.3913 0.89125C17.7563 1.48542 18.9438 2.28708 19.9538 3.29625C20.9638 4.30708 21.7658 5.49458 22.36 6.85875C22.9542 8.22292 23.2508 9.68667 23.25 11.25C23.25 12.8125 22.9529 14.2763 22.3588 15.6413C21.7646 17.0063 20.9629 18.1938 19.9538 19.2038C18.9429 20.2138 17.7554 21.0158 16.3913 21.61C15.0271 22.2042 13.5633 22.5008 12 22.5ZM15.5 16.5L10.75 11.75V5H13.25V10.75L17.25 14.75L15.5 16.5Z" fill="white"/>
</svg>
