<svg width="151" height="59" viewBox="0 0 151 59" fill="none" xmlns="http://www.w3.org/2000/svg">
<path d="M39.4823 3.76841C34.0676 3.58792 22.1853 14.6731 16.921 20.2382L16.4698 43.7045C18.6507 46.1863 24.7272 50.9693 31.5859 50.2473C40.1592 49.3449 49.4093 36.0337 54.3728 35.8081C59.3363 35.5825 70.1658 50.2473 80.7696 50.2473C91.3734 50.2473 93.1783 40.3204 100.849 40.3204C108.52 40.3204 122.508 52.5035 130.405 50.2473C136.722 48.4424 148.905 39.641 150.033 38.5129V3.99405C150.033 3.99405 135.819 24.0736 122.057 22.72C108.294 21.3663 109.422 18.2077 100.172 15.0491C90.9222 11.8905 79.4159 22.0431 71.0682 24.0736C62.7205 26.1042 46.2507 3.99403 39.4823 3.76841Z" fill="#FFE7E4"/>
<path d="M61.3668 0.609741L61.3668 58.818" stroke="#C8C8C8"/>
<path d="M106.49 0.609741L106.49 58.818" stroke="#C8C8C8"/>
<path d="M16.2443 29.1712H33.4941L40.8869 14.1466L48.2797 43.9276L54.1939 29.1712H60.1082L64.7903 20.5857L71.1973 34.0006L73.908 27.0249H83.0258" stroke="#E64D4D" stroke-width="2"/>
<path d="M83.0258 27.0066L100.276 26.9151L107.668 11.8905L115.061 41.6715L120.975 26.9151H126.89L131.572 18.3296L137.979 31.7445L140.69 24.7688H149.807" stroke="#E64D4D" stroke-width="2"/>
<path d="M7.09678 24.208V27H6.53678V25.812H5.34078V27H4.78078V24.208H5.34078V25.356H6.53678V24.208H7.09678ZM9.08797 27L8.47197 25.912H8.20797V27H7.64797V24.208H8.69597C8.91197 24.208 9.09597 24.2467 9.24797 24.324C9.39997 24.3987 9.5133 24.5013 9.58797 24.632C9.6653 24.76 9.70397 24.904 9.70397 25.064C9.70397 25.248 9.65064 25.4147 9.54397 25.564C9.4373 25.7107 9.27864 25.812 9.06797 25.868L9.73597 27H9.08797ZM8.20797 25.492H8.67597C8.82797 25.492 8.9413 25.456 9.01597 25.384C9.09064 25.3093 9.12797 25.2067 9.12797 25.076C9.12797 24.948 9.09064 24.8493 9.01597 24.78C8.9413 24.708 8.82797 24.672 8.67597 24.672H8.20797V25.492ZM2.22144 33.788C1.96277 33.5373 1.76144 33.2173 1.61744 32.828C1.47611 32.4387 1.40544 32.0213 1.40544 31.576C1.40544 31.12 1.48011 30.692 1.62944 30.292C1.77877 29.8893 1.99611 29.56 2.28144 29.304H2.84544V29.356C2.55211 29.636 2.32811 29.972 2.17344 30.364C2.02144 30.756 1.94544 31.16 1.94544 31.576C1.94544 31.9813 2.01744 32.3733 2.16144 32.752C2.30811 33.128 2.51611 33.4547 2.78544 33.732V33.788H2.22144ZM4.77884 31.568C4.93618 31.5973 5.06551 31.676 5.16684 31.804C5.26818 31.932 5.31884 32.0787 5.31884 32.244C5.31884 32.3933 5.28151 32.5253 5.20684 32.64C5.13484 32.752 5.02951 32.84 4.89084 32.904C4.75218 32.968 4.58818 33 4.39884 33H3.19484V30.208H4.34684C4.53618 30.208 4.69884 30.2387 4.83484 30.3C4.97351 30.3613 5.07751 30.4467 5.14684 30.556C5.21884 30.6653 5.25484 30.7893 5.25484 30.928C5.25484 31.0907 5.21084 31.2267 5.12284 31.336C5.03751 31.4453 4.92284 31.5227 4.77884 31.568ZM3.75484 31.36H4.26684C4.40018 31.36 4.50284 31.3307 4.57484 31.272C4.64684 31.2107 4.68284 31.124 4.68284 31.012C4.68284 30.9 4.64684 30.8133 4.57484 30.752C4.50284 30.6907 4.40018 30.66 4.26684 30.66H3.75484V31.36ZM4.31884 32.544C4.45484 32.544 4.56018 32.512 4.63484 32.448C4.71218 32.384 4.75084 32.2933 4.75084 32.176C4.75084 32.056 4.71084 31.9627 4.63084 31.896C4.55084 31.8267 4.44284 31.792 4.30684 31.792H3.75484V32.544H4.31884ZM7.80116 31.072C7.80116 31.2213 7.76516 31.3613 7.69316 31.492C7.62382 31.6227 7.51316 31.728 7.36116 31.808C7.21182 31.888 7.02249 31.928 6.79316 31.928H6.32516V33H5.76516V30.208H6.79316C7.00916 30.208 7.19316 30.2453 7.34516 30.32C7.49716 30.3947 7.61049 30.4973 7.68516 30.628C7.76249 30.7587 7.80116 30.9067 7.80116 31.072ZM6.76916 31.476C6.92382 31.476 7.03849 31.4413 7.11316 31.372C7.18782 31.3 7.22516 31.2 7.22516 31.072C7.22516 30.8 7.07316 30.664 6.76916 30.664H6.32516V31.476H6.76916ZM11.2428 30.208V33H10.6828V31.184L9.93475 33H9.51075L8.75875 31.184V33H8.19875V30.208H8.83475L9.72275 32.284L10.6108 30.208H11.2428ZM11.6524 33.788V33.732C11.9217 33.4547 12.1284 33.128 12.2724 32.752C12.4191 32.3733 12.4924 31.9813 12.4924 31.576C12.4924 31.16 12.4151 30.756 12.2604 30.364C12.1084 29.972 11.8857 29.636 11.5924 29.356V29.304H12.1564C12.4417 29.56 12.6591 29.8893 12.8084 30.292C12.9577 30.692 13.0324 31.12 13.0324 31.576C13.0324 32.0213 12.9604 32.4387 12.8164 32.828C12.6751 33.2173 12.4751 33.5373 12.2164 33.788H11.6524Z" fill="black"/>
<path d="M16.2442 0.609741L16.2442 58.818" stroke="#E64D4D" stroke-width="3"/>
</svg>
