<svg width="152" height="53" viewBox="0 0 152 53" fill="none" xmlns="http://www.w3.org/2000/svg">
<path d="M44.9444 19.136H39.1724V52H32.4644V31.668H24.6124C25.8258 33.332 26.4324 35.3253 26.4324 37.648C26.4324 39.6933 25.9644 41.4613 25.0284 42.952C24.0924 44.4427 22.8098 45.5693 21.1804 46.332C19.5858 47.0947 17.8004 47.476 15.8244 47.476C13.7444 47.476 11.8551 47.0427 10.1564 46.176C8.45776 45.3093 7.10576 44.0787 6.10042 42.484C5.09509 40.8547 4.59242 38.948 4.59242 36.764C4.59242 34.476 5.11242 32.5347 6.15242 30.94C7.19242 29.3107 8.59642 28.0973 10.3644 27.3C12.1671 26.468 14.1778 26.052 16.3964 26.052H32.4644V19.136H0.640422V13.52H44.9444V19.136ZM15.9284 41.808C17.4191 41.808 18.6498 41.34 19.6204 40.404C20.5911 39.4333 21.0764 38.2027 21.0764 36.712C21.0764 35.256 20.5911 34.06 19.6204 33.124C18.6498 32.1533 17.4191 31.668 15.9284 31.668C14.3684 31.668 13.0858 32.1533 12.0804 33.124C11.1098 34.06 10.6244 35.2733 10.6244 36.764C10.6244 38.2547 11.1098 39.468 12.0804 40.404C13.0858 41.34 14.3684 41.808 15.9284 41.808ZM87.6141 19.136H81.8421V52H75.0821V33.54H67.3341V36.608C67.3341 40.2133 66.4154 43.0213 64.5781 45.032C62.7754 47.0427 60.1754 48.048 56.7781 48.048C53.5541 48.048 50.9541 47.1293 48.9781 45.292C47.0367 43.4547 46.0661 41.028 46.0661 38.012C46.0661 34.8227 47.0887 32.3787 49.1341 30.68C51.2141 28.9467 53.8834 28.08 57.1421 28.08H61.0941V19.136H42.7381V13.52H87.6141V19.136ZM75.0821 19.136H67.3341V28.08H75.0821V19.136ZM61.0941 33.54H57.3501C55.8247 33.54 54.5941 33.9387 53.6581 34.736C52.7567 35.4987 52.3061 36.5733 52.3061 37.96C52.3061 39.312 52.7047 40.3867 53.5021 41.184C54.3341 41.9813 55.3914 42.38 56.6741 42.38C58.0607 42.38 59.1354 41.8947 59.8981 40.924C60.6954 39.9533 61.0941 38.636 61.0941 36.972V33.54ZM151.38 19.136H145.66V52H138.9V32.084H131.984C129.419 32.084 127.391 32.708 125.9 33.956C124.409 35.204 123.664 36.9893 123.664 39.312C123.664 41.6 124.323 43.4027 125.64 44.72C126.957 46.0027 128.881 46.644 131.412 46.644H132.452V51.896H130.372C126.351 51.896 123.092 50.8213 120.596 48.672C118.1 46.5227 116.852 43.3507 116.852 39.156C116.852 37.8733 116.991 36.6253 117.268 35.412H96.8839V41.444C96.8839 43.0387 97.2479 44.3213 97.9759 45.292C98.7039 46.2627 99.7959 46.748 101.252 46.748C102.604 46.748 103.661 46.2973 104.424 45.396C105.187 44.4947 105.568 43.3333 105.568 41.912V41.236H112.016C112.051 41.5133 112.068 41.8427 112.068 42.224C112.068 45.3787 111.115 47.8747 109.208 49.712C107.301 51.5493 104.684 52.468 101.356 52.468C97.8199 52.468 95.0812 51.428 93.1399 49.348C91.1986 47.2333 90.2279 44.4947 90.2279 41.132V30.628H94.4399C97.2132 30.628 99.2412 29.9693 100.524 28.652C101.807 27.3 102.448 25.4453 102.448 23.088V19.136H85.4959V13.52H151.38V19.136ZM138.9 19.136H109.104V23.088C109.104 25.7227 108.497 28.0107 107.284 29.952H120.44C121.757 28.7387 123.369 27.8373 125.276 27.248C127.217 26.624 129.349 26.312 131.672 26.312H138.9V19.136ZM139.192 13.728C137.632 11.3013 136.366 9.55066 135.396 8.476C134.425 7.40133 133.454 6.69067 132.484 6.344C131.478 5.99733 130.126 5.824 128.428 5.824H125.88V0.363998H128.272C131.045 0.398665 133.246 0.693331 134.876 1.248C136.505 1.80266 138.117 3.016 139.712 4.888C141.306 6.72533 143.248 9.672 145.536 13.728H139.192Z" fill="#EEF6F7"/>
</svg>
