<svg width="3" height="17" viewBox="0 0 3 17" fill="none" xmlns="http://www.w3.org/2000/svg">
<path d="M1.5 9.67188C1.26822 9.67188 1.04166 9.60315 0.848941 9.47438C0.656227 9.34561 0.506025 9.16259 0.417329 8.94846C0.328633 8.73432 0.305425 8.4987 0.350642 8.27138C0.395859 8.04406 0.50747 7.83525 0.67136 7.67136C0.835249 7.50747 1.04406 7.39586 1.27138 7.35064C1.4987 7.30543 1.73432 7.32863 1.94846 7.41733C2.16259 7.50603 2.34561 7.65623 2.47438 7.84894C2.60315 8.04166 2.67187 8.26823 2.67187 8.5C2.67187 8.8108 2.54841 9.10887 2.32864 9.32864C2.10887 9.54841 1.8108 9.67188 1.5 9.67188ZM2.67187 15.1406C2.67187 14.9089 2.60315 14.6823 2.47438 14.4896C2.34561 14.2969 2.16259 14.1467 1.94846 14.058C1.73432 13.9693 1.4987 13.9461 1.27138 13.9913C1.04406 14.0365 0.835249 14.1481 0.671359 14.312C0.50747 14.4759 0.395859 14.6847 0.350642 14.912C0.305425 15.1393 0.328632 15.3749 0.417329 15.5891C0.506025 15.8032 0.656227 15.9862 0.848941 16.115C1.04165 16.2438 1.26822 16.3125 1.5 16.3125C1.8108 16.3125 2.10887 16.189 2.32864 15.9693C2.54841 15.7495 2.67187 15.4514 2.67187 15.1406ZM2.67187 1.85938C2.67187 1.6276 2.60315 1.40103 2.47438 1.20832C2.34561 1.0156 2.16259 0.865401 1.94846 0.776704C1.73433 0.688008 1.4987 0.664801 1.27138 0.710018C1.04406 0.755235 0.83525 0.866845 0.67136 1.03073C0.50747 1.19462 0.395859 1.40343 0.350642 1.63075C0.305425 1.85808 0.328633 2.0937 0.417329 2.30783C0.506026 2.52196 0.656228 2.70499 0.848941 2.83375C1.04166 2.96252 1.26822 3.03125 1.5 3.03125C1.8108 3.03125 2.10887 2.90779 2.32864 2.68802C2.54841 2.46825 2.67187 2.17018 2.67187 1.85938Z" fill="#9CA0A0"/>
</svg>
