<svg width="252" height="40" viewBox="0 0 252 40" fill="none" xmlns="http://www.w3.org/2000/svg">
<path d="M52.579 2.496L43.063 39H32.299L26.475 14.976L20.443 39H9.67905L0.423047 2.496H9.93905L15.191 29.068L21.691 2.496H31.467L37.707 29.068L43.011 2.496H52.579ZM84.3905 24.024C84.3905 24.856 84.3385 25.7227 84.2345 26.624H64.1105C64.2491 28.4267 64.8211 29.8133 65.8265 30.784C66.8665 31.72 68.1318 32.188 69.6225 32.188C71.8411 32.188 73.3838 31.252 74.2505 29.38H83.7145C83.2291 31.2867 82.3451 33.0027 81.0625 34.528C79.8145 36.0533 78.2371 37.2493 76.3305 38.116C74.4238 38.9827 72.2918 39.416 69.9345 39.416C67.0918 39.416 64.5611 38.8093 62.3425 37.596C60.1238 36.3827 58.3905 34.6493 57.1425 32.396C55.8945 30.1427 55.2705 27.508 55.2705 24.492C55.2705 21.476 55.8771 18.8413 57.0905 16.588C58.3385 14.3347 60.0718 12.6013 62.2905 11.388C64.5091 10.1747 67.0571 9.568 69.9345 9.568C72.7425 9.568 75.2385 10.1573 77.4225 11.336C79.6065 12.5147 81.3051 14.196 82.5185 16.38C83.7665 18.564 84.3905 21.112 84.3905 24.024ZM75.2905 21.684C75.2905 20.1587 74.7705 18.9453 73.7305 18.044C72.6905 17.1427 71.3905 16.692 69.8305 16.692C68.3398 16.692 67.0745 17.1253 66.0345 17.992C65.0291 18.8587 64.4051 20.0893 64.1625 21.684H75.2905ZM97.9734 0.52V39H89.0814V0.52H97.9734ZM102.649 24.492C102.649 21.476 103.256 18.8413 104.469 16.588C105.717 14.3347 107.433 12.6013 109.617 11.388C111.836 10.1747 114.367 9.568 117.209 9.568C120.849 9.568 123.883 10.5213 126.309 12.428C128.771 14.3347 130.383 17.0213 131.145 20.488H121.681C120.884 18.2693 119.341 17.16 117.053 17.16C115.424 17.16 114.124 17.8013 113.153 19.084C112.183 20.332 111.697 22.1347 111.697 24.492C111.697 26.8493 112.183 28.6693 113.153 29.952C114.124 31.2 115.424 31.824 117.053 31.824C119.341 31.824 120.884 30.7147 121.681 28.496H131.145C130.383 31.8933 128.771 34.5627 126.309 36.504C123.848 38.4453 120.815 39.416 117.209 39.416C114.367 39.416 111.836 38.8093 109.617 37.596C107.433 36.3827 105.717 34.6493 104.469 32.396C103.256 30.1427 102.649 27.508 102.649 24.492ZM149.11 39.416C146.267 39.416 143.702 38.8093 141.414 37.596C139.16 36.3827 137.375 34.6493 136.058 32.396C134.775 30.1427 134.134 27.508 134.134 24.492C134.134 21.5107 134.792 18.8933 136.11 16.64C137.427 14.352 139.23 12.6013 141.518 11.388C143.806 10.1747 146.371 9.568 149.214 9.568C152.056 9.568 154.622 10.1747 156.91 11.388C159.198 12.6013 161 14.352 162.318 16.64C163.635 18.8933 164.294 21.5107 164.294 24.492C164.294 27.4733 163.618 30.108 162.266 32.396C160.948 34.6493 159.128 36.3827 156.806 37.596C154.518 38.8093 151.952 39.416 149.11 39.416ZM149.11 31.72C150.808 31.72 152.247 31.096 153.426 29.848C154.639 28.6 155.246 26.8147 155.246 24.492C155.246 22.1693 154.656 20.384 153.478 19.136C152.334 17.888 150.912 17.264 149.214 17.264C147.48 17.264 146.042 17.888 144.898 19.136C143.754 20.3493 143.182 22.1347 143.182 24.492C143.182 26.8147 143.736 28.6 144.846 29.848C145.99 31.096 147.411 31.72 149.11 31.72ZM206.035 9.672C209.64 9.672 212.5 10.764 214.615 12.948C216.764 15.132 217.839 18.1653 217.839 22.048V39H208.999V23.244C208.999 21.372 208.496 19.9333 207.491 18.928C206.52 17.888 205.168 17.368 203.435 17.368C201.702 17.368 200.332 17.888 199.327 18.928C198.356 19.9333 197.871 21.372 197.871 23.244V39H189.031V23.244C189.031 21.372 188.528 19.9333 187.523 18.928C186.552 17.888 185.2 17.368 183.467 17.368C181.734 17.368 180.364 17.888 179.359 18.928C178.388 19.9333 177.903 21.372 177.903 23.244V39H169.011V9.984H177.903V13.624C178.804 12.4107 179.983 11.4573 181.439 10.764C182.895 10.036 184.542 9.672 186.379 9.672C188.563 9.672 190.504 10.14 192.203 11.076C193.936 12.012 195.288 13.3467 196.259 15.08C197.264 13.4853 198.634 12.1853 200.367 11.18C202.1 10.1747 203.99 9.672 206.035 9.672ZM251.41 24.024C251.41 24.856 251.358 25.7227 251.254 26.624H231.13C231.269 28.4267 231.841 29.8133 232.846 30.784C233.886 31.72 235.151 32.188 236.642 32.188C238.861 32.188 240.403 31.252 241.27 29.38H250.734C250.249 31.2867 249.365 33.0027 248.082 34.528C246.834 36.0533 245.257 37.2493 243.35 38.116C241.443 38.9827 239.311 39.416 236.954 39.416C234.111 39.416 231.581 38.8093 229.362 37.596C227.143 36.3827 225.41 34.6493 224.162 32.396C222.914 30.1427 222.29 27.508 222.29 24.492C222.29 21.476 222.897 18.8413 224.11 16.588C225.358 14.3347 227.091 12.6013 229.31 11.388C231.529 10.1747 234.077 9.568 236.954 9.568C239.762 9.568 242.258 10.1573 244.442 11.336C246.626 12.5147 248.325 14.196 249.538 16.38C250.786 18.564 251.41 21.112 251.41 24.024ZM242.31 21.684C242.31 20.1587 241.79 18.9453 240.75 18.044C239.71 17.1427 238.41 16.692 236.85 16.692C235.359 16.692 234.094 17.1253 233.054 17.992C232.049 18.8587 231.425 20.0893 231.182 21.684H242.31Z" fill="#EEF6F7"/>
</svg>
